<?xml version="1.0" standalone="no"?> <!DOCTYPE svg PUBLIC "-//W3C//DTD SVG 1.0//EN" "http://www.w3.org/TR/2001/REC-SVG-20010904/DTD/svg10.dtd" > <svg xmlns="http://www.w3.org/2000/svg" width="100%" height="100%">
<defs >
<font id="segoe" horiz-adv-x="1119" ><font-face
    font-family="Segoe"
    units-per-em="2048"
    panose-1="2 11 5 2 4 2 0 2 2 3"
    ascent="2181"
    descent="-578"
    alphabetic="0" />
<missing-glyph horiz-adv-x="1024" d="M128 0V750H896V0H128ZM256 128H768V622H256V128Z" />
<glyph unicode=" " glyph-name="space" horiz-adv-x="561" />
<glyph unicode="!" glyph-name="exclam" horiz-adv-x="582" d="M375 1434L356 403H221L203 1434H375ZM401 92Q401 47 369 15T291 -18Q245 -18 213 14T180 92Q180 138 212 170T291 203Q336 203 368 171T401 92Z" />
<glyph unicode="&quot;" glyph-name="quotedbl" horiz-adv-x="772" d="M596 1434L586 987H469L461 1434H596ZM313 1434L303 987H188L178 1434H313Z" />
<glyph unicode="#" glyph-name="numbersign" horiz-adv-x="1210" d="M1165 1032L1143 926H883L819 627H1100L1073 520H799L711 123H584L670 520H420L336 123H211L295 520H33L53 627H317L379 926H102L123 1032H399L483 1434H610L526 1032H778L864 1434H987L903
1032H1165ZM758 926H506L440 627H694L758 926Z" />
<glyph unicode="$" glyph-name="dollar" horiz-adv-x="1104" d="M977 371Q977 229 884 134Q789 36 616 8V-209H512V0Q411 0 305 29Q211 54 166 86V260Q224 208 328 173Q427 139 512 139V651Q330 739 258 811Q162 909 162 1059Q162 1201 259 1307T512 1436V1616H616V1440Q811
1434 887 1384V1214Q785 1293 616 1300V772Q793 687 871 613Q977 511 977 371ZM512 827V1294Q428 1277 379 1220T330 1079Q330 994 370 939T512 827ZM809 356Q809 494 616 600V147Q809 189 809 356Z" />
<glyph unicode="%" glyph-name="percent" horiz-adv-x="1675" d="M1599 356Q1599 185 1505 81T1257 -23Q1110 -23 1022 75T934 336Q934 519 1033 623Q1126 721 1278 721Q1428 721 1512 629Q1599 533 1599 356ZM1468 354Q1468 480 1412 547Q1360 608 1272 608Q1178
608 1123 540Q1067 469 1067 344Q1067 224 1121 157T1268 90Q1362 90 1415 160T1468 354ZM1364 1434L444 -10H301L1221 1434H1364ZM745 1094Q745 922 651 819T403 715Q256 715 168 813T80 1073Q80 1256 179 1359Q272 1456 424 1456Q574 1456 658 1365Q745 1270
745 1094ZM614 1090Q614 1215 558 1283Q505 1346 418 1346Q324 1346 269 1276T213 1081Q213 961 267 893T414 825Q508 825 561 895T614 1090Z" />
<glyph unicode="&amp;" glyph-name="ampersand" horiz-adv-x="1446" d="M1425 0H1196L1042 158Q848 -25 573 -25Q351 -25 227 97Q119 204 119 362Q119 615 446 782Q291 980 291 1120Q291 1266 397 1362T668 1458Q828 1458 922 1368Q1010 1284 1010 1159Q1010 1022
930 929Q858 845 686 760Q892 543 1061 377Q1105 438 1137 537Q1175 652 1176 758H1327Q1325 486 1155 272Q1196 232 1425 0ZM850 1145Q850 1224 797 1277Q745 1327 672 1327Q569 1327 510 1266Q455 1209 455 1120Q455 1011 596 854Q850 976 850 1145ZM948 256Q808
398 539 682Q411 617 354 552Q287 476 287 369Q287 254 368 185T573 115Q794 115 948 256Z" />
<glyph unicode="&apos;" glyph-name="quotesingle" horiz-adv-x="469" d="M303 1434L293 987H178L168 1434H303Z" />
<glyph unicode="(" glyph-name="parenleft" horiz-adv-x="618" d="M596 -326H451Q139 28 139 547Q139 1067 451 1434H598Q285 1054 285 549Q285 48 596 -326Z" />
<glyph unicode=")" glyph-name="parenright" horiz-adv-x="618" d="M481 547Q481 28 170 -326H25Q336 48 336 549Q336 1054 23 1434H170Q481 1067 481 547Z" />
<glyph unicode="*" glyph-name="asterisk" horiz-adv-x="854" d="M780 1104L506 1049L696 805L586 729L430 993L272 729L162 805L352 1049L76 1104L121 1229L383 1130L360 1434H498L475 1130L737 1229L780 1104Z" />
<glyph unicode="+" glyph-name="plus" horiz-adv-x="1401" d="M1171 530H768V127H635V530H231V664H635V1067H768V664H1171V530Z" />
<glyph unicode="," glyph-name="comma" horiz-adv-x="444" d="M315 227L156 -264H39L156 227H315Z" />
<glyph unicode="-" glyph-name="hyphen" horiz-adv-x="819" d="M690 506H143V635H690V506Z" />
<glyph unicode="." glyph-name="period" horiz-adv-x="444" d="M336 90Q336 44 303 11T223 -23Q177 -23 145 10T113 90Q113 137 145 170T223 203Q270 203 303 170T336 90Z" />
<glyph unicode="/" glyph-name="slash" horiz-adv-x="799" d="M813 1434L125 -238H-29L657 1434H813Z" />
<glyph unicode="0" glyph-name="zero" horiz-adv-x="1104" d="M1020 723Q1020 343 880 149Q754 -25 539 -25Q336 -25 219 139Q86 324 86 688Q86 1087 224 1283Q348 1458 569 1458Q1020 1458 1020 723ZM852 707Q852 1319 561 1319Q254 1319 254 696Q254 115 555
115Q852 115 852 707Z" />
<glyph unicode="1" glyph-name="one" horiz-adv-x="1104" d="M987 0H176V143H500V1257L168 1159V1315L664 1466V143H987V0Z" />
<glyph unicode="2" glyph-name="two" horiz-adv-x="1104" d="M961 0H96V145L514 565Q690 742 752 847Q811 946 811 1059Q811 1181 740 1250T539 1319Q346 1319 170 1155V1327Q230 1377 328 1414Q445 1458 561 1458Q761 1458 871 1347Q973 1244 973 1075Q973 933
892 797Q815 667 625 479L293 152V147H961V0Z" />
<glyph unicode="3" glyph-name="three" horiz-adv-x="1104" d="M961 406Q961 213 822 94T457 -25Q253 -25 131 53V229Q277 115 463 115Q613 115 703 189T793 391Q793 672 393 672H274V811H387Q741 811 741 1075Q741 1319 471 1319Q320 1319 186 1217V1376Q324
1458 512 1458Q699 1458 808 1357Q909 1262 909 1116Q909 833 623 752V748Q773 733 867 641T961 406Z" />
<glyph unicode="4" glyph-name="four" horiz-adv-x="1104" d="M1034 381H850V0H688V381H14V487L651 1434H850V514H1034V381ZM688 514V1135Q688 1199 692 1282H688Q673 1246 633 1171L193 514H688Z" />
<glyph unicode="5" glyph-name="five" horiz-adv-x="1104" d="M969 438Q969 240 844 114Q706 -25 461 -25Q262 -25 164 35V209Q311 115 463 115Q619 115 710 202T801 428Q801 563 713 642Q618 727 434 727Q439 727 209 715V1434H903V1286H365V866Q430 870 485
870Q726 870 854 743Q969 628 969 438Z" />
<glyph unicode="6" glyph-name="six" horiz-adv-x="1104" d="M1022 455Q1022 243 895 109T571 -25Q361 -25 239 140Q111 314 111 631Q111 1017 277 1242Q437 1458 696 1458Q846 1458 934 1417V1262Q823 1319 700 1319Q509 1319 395 1149T281 694H285Q384 897 612
897Q799 897 910 776T1022 455ZM854 434Q854 580 785 666Q712 758 575 758Q444 758 363 664Q291 580 291 469Q291 332 361 231Q441 115 578 115Q704 115 781 207Q854 295 854 434Z" />
<glyph unicode="7" glyph-name="seven" horiz-adv-x="1104" d="M1010 1382L442 0H272L809 1286H86V1434H1010V1382Z" />
<glyph unicode="8" glyph-name="eight" horiz-adv-x="1104" d="M1006 365Q1006 190 885 86Q756 -25 522 -25Q340 -25 220 79T100 350Q100 626 410 752V756Q152 875 152 1104Q152 1259 269 1358T573 1458Q741 1458 849 1365T958 1126Q958 888 692 756V752Q1006
639 1006 365ZM791 1106Q791 1208 724 1265Q662 1319 559 1319Q459 1319 391 1261Q319 1201 319 1108Q319 921 553 825Q791 923 791 1106ZM838 352Q838 568 543 674Q268 565 268 358Q268 252 345 185Q425 115 557 115Q684 115 763 184Q838 250 838 352Z" />
<glyph unicode="9" glyph-name="nine" horiz-adv-x="1104" d="M1004 803Q1004 388 836 172Q684 -25 422 -25Q278 -25 172 25V182Q292 115 426 115Q620 115 729 270T838 717Q836 717 834 717Q743 532 514 532Q330 532 212 656T94 979Q94 1192 224 1325T555 1458Q750
1458 866 1316Q1004 1147 1004 803ZM827 950Q827 1116 747 1217T541 1319Q422 1319 342 1230T262 1001Q262 849 341 764T551 678Q667 678 747 757T827 950Z" />
<glyph unicode=":" glyph-name="colon" horiz-adv-x="444" d="M336 936Q336 890 303 857T223 823Q177 823 145 856T113 936Q113 982 145 1014T223 1047Q270 1047 303 1015T336 936ZM336 90Q336 44 303 11T223 -23Q177 -23 145 10T113 90Q113 137 145 170T223 203Q270
203 303 170T336 90Z" />
<glyph unicode=";" glyph-name="semicolon" horiz-adv-x="444" d="M338 936Q338 890 305 857T225 823Q179 823 147 856T115 936Q115 982 147 1014T225 1047Q272 1047 305 1015T338 936ZM315 227L156 -264H39L156 227H315Z" />
<glyph unicode="&lt;" glyph-name="less" horiz-adv-x="1401" d="M1133 127L272 559V618L1133 1100V950L489 594V590L1133 276V127Z" />
<glyph unicode="=" glyph-name="equal" horiz-adv-x="1401" d="M1171 743H231V877H1171V743ZM1171 317H231V451H1171V317Z" />
<glyph unicode="&gt;" glyph-name="greater" horiz-adv-x="1401" d="M1133 559L272 127V276L915 588V594L272 950V1100L1133 618V559Z" />
<glyph unicode="?" glyph-name="question" horiz-adv-x="918" d="M817 1114Q817 908 610 733Q527 662 500 622Q463 565 463 477V403H311V481Q311 584 353 659Q390 726 479 799Q655 942 655 1100Q655 1196 595 1256Q532 1319 424 1319Q256 1319 131 1186V1362Q284
1458 449 1458Q621 1458 722 1358Q817 1263 817 1114ZM498 92Q498 47 466 15T387 -18Q341 -18 309 14T276 92Q276 138 308 170T387 203Q433 203 465 171T498 92Z" />
<glyph unicode="@" glyph-name="at" horiz-adv-x="1956" d="M1788 733Q1788 481 1663 325Q1548 182 1384 182Q1165 182 1163 420H1159Q1086 182 872 182Q737 182 654 280Q567 381 567 555Q567 775 677 922Q794 1079 987 1079Q1060 1079 1116 1043T1188 950H1192Q1193
978 1202 1065H1327Q1280 514 1280 504Q1280 297 1399 297Q1503 297 1575 410Q1651 529 1651 717Q1651 971 1500 1141Q1323 1339 993 1339Q695 1339 502 1131T309 612Q309 310 488 123Q674 -72 991 -72Q1237 -72 1413 10V-115Q1240 -188 981 -188Q616 -188 392
34Q172 254 172 606Q172 969 401 1209Q635 1454 1001 1454Q1337 1454 1558 1258Q1788 1054 1788 733ZM1165 750Q1165 965 985 965Q855 965 778 836Q709 720 709 553Q709 433 762 364Q813 299 897 299Q1027 299 1099 432Q1165 554 1165 750Z" />
<glyph unicode="A" glyph-name="A" horiz-adv-x="1321" d="M1298 0H1112L961 401H352L209 0H23L571 1434H745L1298 0ZM905 553L680 1163Q671 1188 657 1260H653Q644 1199 631 1163L408 553H905Z" />
<glyph unicode="B" glyph-name="B" horiz-adv-x="1174" d="M1071 412Q1071 224 934 110Q803 0 606 0H188V1434H596Q790 1434 899 1336Q999 1247 999 1106Q999 985 934 895T752 766V762Q898 745 983 655Q1071 561 1071 412ZM823 1073Q823 1282 549 1282H356V819H528Q666
819 744 885T823 1073ZM895 414Q895 668 549 668H356V152H584Q737 152 819 227Q895 296 895 414Z" />
<glyph unicode="C" glyph-name="C" horiz-adv-x="1268" d="M1163 59Q1005 -25 768 -25Q460 -25 275 175Q94 371 94 690Q94 1041 310 1255Q515 1458 825 1458Q1030 1458 1163 1399V1221Q1010 1307 823 1307Q581 1307 429 1148Q270 982 270 700Q270 432 420 276Q562
127 791 127Q1007 127 1163 223V59Z" />
<glyph unicode="D" glyph-name="D" horiz-adv-x="1436" d="M1341 735Q1341 408 1138 207Q927 0 567 0H188V1434H584Q1341 1434 1341 735ZM1165 731Q1165 1282 580 1282H356V152H569Q853 152 1009 303T1165 731Z" />
<glyph unicode="E" glyph-name="E" horiz-adv-x="1036" d="M948 0H188V1434H915V1282H356V805H874V653H356V152H948V0Z" />
<glyph unicode="F" glyph-name="F" horiz-adv-x="999" d="M915 1282H356V786H874V635H356V0H188V1434H915V1282Z" />
<glyph unicode="G" glyph-name="G" horiz-adv-x="1405" d="M1260 98Q1044 -25 780 -25Q476 -25 287 170Q94 369 94 698Q94 1033 307 1247Q516 1458 838 1458Q1071 1458 1231 1382V1196Q1057 1307 819 1307Q579 1307 426 1142Q270 975 270 711Q270 431 420 275Q562
127 801 127Q969 127 1092 195V596H778V748H1260V98Z" />
<glyph unicode="H" glyph-name="H" horiz-adv-x="1454" d="M1266 0H1098V653H356V0H188V1434H356V805H1098V1434H1266V0Z" />
<glyph unicode="I" glyph-name="I" horiz-adv-x="545" d="M356 0H188V1434H356V0Z" />
<glyph unicode="J" glyph-name="J" horiz-adv-x="731" d="M555 514Q555 249 438 105Q332 -25 158 -25Q75 -25 20 0V166Q73 127 160 127Q387 127 387 512V1434H555V514Z" />
<glyph unicode="K" glyph-name="K" horiz-adv-x="1188" d="M1186 0H952L397 655Q375 682 360 707H356V0H188V1434H356V760H360Q374 781 397 809L934 1434H1143L528 745L1186 0Z" />
<glyph unicode="L" glyph-name="L" horiz-adv-x="965" d="M932 0H188V1434H356V152H932V0Z" />
<glyph unicode="M" glyph-name="M" horiz-adv-x="1839" d="M1651 0H1483V963Q1483 1077 1497 1241H1493Q1469 1145 1450 1102L961 0H879L389 1094Q368 1140 346 1241H342Q350 1155 350 961V0H188V1434H410L850 434Q900 321 915 262H922Q965 380 991 438L1440 1434H1651V0Z"
/>
<glyph unicode="N" glyph-name="N" horiz-adv-x="1532" d="M1343 0H1139L399 1143Q373 1184 354 1233H348Q356 1187 356 1036V0H188V1434H406L1124 309Q1167 242 1182 213H1186Q1176 275 1176 424V1434H1343V0Z" />
<glyph unicode="O" glyph-name="O" horiz-adv-x="1544" d="M1450 735Q1450 383 1262 177Q1077 -25 766 -25Q458 -25 273 181Q94 381 94 700Q94 1038 273 1243Q460 1458 791 1458Q1087 1458 1268 1258T1450 735ZM1274 713Q1274 1000 1138 1157Q1007 1307 778 1307Q553
1307 412 1143T270 715Q270 447 410 285Q546 127 766 127Q998 127 1133 276Q1274 431 1274 713Z" />
<glyph unicode="P" glyph-name="P" horiz-adv-x="1147" d="M1065 1006Q1065 811 936 683Q794 543 545 543H356V0H188V1434H582Q814 1434 941 1320Q1065 1208 1065 1006ZM889 997Q889 1282 553 1282H356V694H532Q706 694 798 775Q889 853 889 997Z" />
<glyph unicode="Q" glyph-name="Q" horiz-adv-x="1544" d="M1450 735Q1450 439 1316 245T936 -4L1270 -352H1038L756 -25Q457 -23 275 180Q94 380 94 700Q94 1034 268 1238Q456 1458 795 1458Q1086 1458 1268 1258T1450 735ZM1274 713Q1274 1000 1138 1157Q1007
1307 778 1307Q553 1307 412 1143T270 715Q270 447 410 285Q546 127 766 127Q998 127 1133 276Q1274 431 1274 713Z" />
<glyph unicode="R" glyph-name="R" horiz-adv-x="1178" d="M1110 0H909L721 432Q643 610 502 610H356V0H188V1434H616Q828 1434 944 1325Q1053 1223 1053 1053Q1053 898 966 794T733 655V651Q813 623 881 481L1110 0ZM877 1038Q877 1152 802 1217T586 1282H356V762H578Q711
762 794 838T877 1038Z" />
<glyph unicode="S" glyph-name="S" horiz-adv-x="1018" d="M920 362Q920 195 809 92Q683 -25 444 -25Q364 -25 266 0T121 57V256Q188 196 289 160Q383 127 467 127Q743 127 743 342Q743 435 673 507Q611 570 442 666Q265 766 194 858T123 1075Q123 1240 244 1347Q371
1458 578 1458Q771 1458 860 1407V1219Q747 1307 569 1307Q443 1307 369 1243Q299 1183 299 1090Q299 990 363 923Q417 867 578 778Q754 681 832 591Q920 490 920 362Z" />
<glyph unicode="T" glyph-name="T" horiz-adv-x="1073" d="M1036 1282H623V0H455V1282H41V1434H1036V1282Z" />
<glyph unicode="U" glyph-name="U" horiz-adv-x="1407" d="M1237 580Q1237 -25 692 -25Q170 -25 170 557V1434H338V567Q338 127 711 127Q1069 127 1069 553V1434H1237V580Z" />
<glyph unicode="V" glyph-name="V" horiz-adv-x="1272" d="M1253 1434L723 0H539L18 1434H205L602 297Q621 243 631 170H635Q643 231 668 299L1073 1434H1253Z" />
<glyph unicode="W" glyph-name="W" horiz-adv-x="1913" d="M1888 1434L1483 0H1286L991 1049Q972 1117 969 1194H965Q958 1120 938 1051L641 0H446L27 1434H211L516 334Q535 266 541 190H545Q549 243 575 334L893 1434H1055L1358 326Q1374 265 1382 193H1386Q1390
244 1413 330L1706 1434H1888Z" />
<glyph unicode="X" glyph-name="X" horiz-adv-x="1208" d="M1178 0H973L643 549Q628 574 610 621H606Q596 597 571 549L231 0H27L506 721L63 1434H270L563 930Q593 878 614 829H618Q650 895 674 934L979 1434H1171L721 723L1178 0Z" />
<glyph unicode="Y" glyph-name="Y" horiz-adv-x="1133" d="M1120 1434L647 530V0H479V526L18 1434H209L530 786Q544 753 565 698H567Q578 732 606 786L942 1434H1120Z" />
<glyph unicode="Z" glyph-name="Z" horiz-adv-x="1167" d="M1124 1395L285 152H1104V0H33V47L866 1282H100V1434H1124V1395Z" />
<glyph unicode="[" glyph-name="bracketleft" horiz-adv-x="618" d="M567 -326H201V1434H567V1315H346V-207H567V-326Z" />
<glyph unicode="\" glyph-name="backslash" horiz-adv-x="776" d="M799 -240H647L-27 1434H129L799 -240Z" />
<glyph unicode="]" glyph-name="bracketright" horiz-adv-x="618" d="M420 -326H53V-207H274V1315H53V1434H420V-326Z" />
<glyph unicode="^" glyph-name="asciicircum" horiz-adv-x="1401" d="M1174 625H1024L692 1243H686L377 625H229L651 1458H717L1174 625Z" />
<glyph unicode="_" glyph-name="underscore" horiz-adv-x="850" d="M850 -297H0V-178H850V-297Z" />
<glyph unicode="`" glyph-name="grave" horiz-adv-x="549" d="M471 1219H344L82 1546H250L471 1219Z" />
<glyph unicode="a" glyph-name="a" horiz-adv-x="1034" d="M891 0H727V160H723Q616 -25 408 -25Q252 -25 165 61Q82 142 82 272Q82 559 420 606L727 649Q727 909 516 909Q331 909 182 784V952Q229 986 327 1016Q436 1049 530 1049Q891 1049 891 666V0ZM727 518L479
483Q344 464 294 416Q250 374 250 285Q250 211 302 163T446 115Q570 115 648 201T727 416V518Z" />
<glyph unicode="b" glyph-name="b" horiz-adv-x="1196" d="M1108 543Q1108 293 989 139Q863 -25 641 -25Q439 -25 334 147H330V0H166V1516H330V844H334Q455 1049 688 1049Q892 1049 1004 901Q1108 765 1108 543ZM940 545Q940 715 861 812T647 909Q499 909 410
803Q330 705 330 561V418Q330 294 409 207Q493 115 623 115Q769 115 853 225Q940 339 940 545Z" />
<glyph unicode="c" glyph-name="c" horiz-adv-x="938" d="M856 47Q738 -25 575 -25Q355 -25 220 121Q88 263 88 487Q88 739 232 894T621 1049Q755 1049 858 997V829Q744 909 614 909Q458 909 359 800Q256 688 256 502Q256 323 350 219T604 115Q738 115 856 203V47Z" />
<glyph unicode="d" glyph-name="d" horiz-adv-x="1198" d="M1032 0H868V174H864Q750 -25 512 -25Q323 -25 208 109Q88 247 88 487Q88 743 216 896T557 1049Q767 1049 864 883H868V1516H1032V0ZM868 463V614Q868 737 788 821Q705 909 578 909Q428 909 342 800T256
496Q256 311 345 209Q427 115 559 115Q699 115 786 217Q868 315 868 463Z" />
<glyph unicode="e" glyph-name="e" horiz-adv-x="1055" d="M981 471H258Q262 299 350 207T592 115Q765 115 909 227V74Q775 -25 553 -25Q343 -25 220 107Q88 247 88 508Q88 755 231 907Q365 1049 559 1049Q767 1049 877 910Q981 780 981 557V471ZM813 610Q811
750 747 828Q680 909 557 909Q441 909 360 827T260 610H813Z" />
<glyph unicode="f" glyph-name="f" horiz-adv-x="641" d="M672 1372Q624 1399 563 1399Q391 1399 391 1182V1024H631V885H391V0H227V885H53V1024H227V1190Q227 1359 332 1455Q422 1538 553 1538Q629 1538 672 1520V1372Z" />
<glyph unicode="g" glyph-name="g" horiz-adv-x="1198" d="M1032 82Q1032 -481 492 -481Q302 -481 160 -410V-246Q333 -342 489 -342Q868 -342 868 59V172H864Q747 -25 512 -25Q323 -25 207 110Q88 247 88 479Q88 738 212 891Q338 1049 557 1049Q764 1049 864
883H868V1024H1032V82ZM868 463V614Q868 734 788 820Q705 909 580 909Q429 909 344 802Q256 692 256 489Q256 319 338 217T557 115Q695 115 781 212T868 463Z" />
<glyph unicode="h" glyph-name="h" horiz-adv-x="1159" d="M1016 0H852V590Q852 909 614 909Q495 909 414 820Q330 727 330 580V0H166V1516H330V854H334Q453 1049 670 1049Q1016 1049 1016 631V0Z" />
<glyph unicode="i" glyph-name="i" horiz-adv-x="496" d="M358 1391Q358 1346 327 1315T250 1284Q206 1284 175 1314T143 1391Q143 1436 174 1466T250 1497Q295 1497 326 1467T358 1391ZM330 0H166V1024H330V0Z" />
<glyph unicode="j" glyph-name="j" horiz-adv-x="496" d="M358 1391Q358 1346 327 1315T250 1284Q206 1284 175 1314T143 1391Q143 1436 174 1466T250 1497Q295 1497 326 1467T358 1391ZM330 43Q330 -214 225 -350Q124 -481 -61 -481Q-133 -481 -199 -451V-297Q-124
-342 -57 -342Q166 -342 166 16V1024H330V43Z" />
<glyph unicode="k" glyph-name="k" horiz-adv-x="1018" d="M1016 0H786L334 492H330V0H166V1516H330V555H334L764 1024H979L504 530L1016 0Z" />
<glyph unicode="l" glyph-name="l" horiz-adv-x="496" d="M330 0H166V1516H330V0Z" />
<glyph unicode="m" glyph-name="m" horiz-adv-x="1763" d="M1620 0H1456V588Q1456 765 1399 840Q1346 909 1227 909Q1121 909 1048 814T975 584V0H811V608Q811 909 578 909Q471 909 402 821Q330 730 330 584V0H166V1024H330V862H334Q443 1049 651 1049Q757 1049
837 989Q913 931 942 836Q1056 1049 1282 1049Q1620 1049 1620 631V0Z" />
<glyph unicode="n" glyph-name="n" horiz-adv-x="1159" d="M1016 0H852V584Q852 909 614 909Q491 909 411 817T330 584V0H166V1024H330V854H334Q449 1049 670 1049Q839 1049 927 939T1016 627V0Z" />
<glyph unicode="o" glyph-name="o" horiz-adv-x="1184" d="M1096 516Q1096 271 958 123T586 -25Q355 -25 220 123Q88 266 88 500Q88 767 238 913Q377 1049 610 1049Q839 1049 967 907T1096 516ZM928 510Q928 707 839 810Q753 909 598 909Q445 909 353 809Q256
702 256 506Q256 322 349 219T598 115Q760 115 845 220Q928 322 928 510Z" />
<glyph unicode="p" glyph-name="p" horiz-adv-x="1196" d="M1108 543Q1108 292 989 138Q863 -25 641 -25Q439 -25 334 147H330V-471H166V1024H330V844H334Q455 1049 688 1049Q892 1049 1004 901Q1108 765 1108 543ZM940 545Q940 715 861 812T647 909Q499 909 410
803Q330 705 330 561V418Q330 294 409 207Q493 115 623 115Q769 115 853 225Q940 339 940 545Z" />
<glyph unicode="q" glyph-name="q" horiz-adv-x="1198" d="M1032 -471H868V176H864Q757 -25 514 -25Q325 -25 209 107Q88 245 88 487Q88 745 217 897T559 1049Q769 1049 864 883H868V1024H1032V-471ZM868 461V610Q868 733 789 819Q705 909 575 909Q431 909 346
805Q256 695 256 492Q256 301 352 200Q432 115 553 115Q701 115 789 220Q868 317 868 461Z" />
<glyph unicode="r" glyph-name="r" horiz-adv-x="713" d="M700 858Q657 891 575 891Q475 891 407 801Q330 700 330 522V0H166V1024H330V813H334Q370 925 445 986Q515 1042 602 1042Q667 1042 700 1028V858Z" />
<glyph unicode="s" glyph-name="s" horiz-adv-x="799" d="M725 274Q725 148 631 65Q528 -25 350 -25Q204 -25 96 37V213Q216 115 362 115Q557 115 557 258Q557 318 514 357T346 451Q217 507 163 567Q98 638 98 752Q98 880 199 964T459 1049Q581 1049 678 1001V836Q577
909 446 909Q364 909 315 869T266 766Q266 698 307 660Q344 625 461 575Q592 520 650 462Q725 388 725 274Z" />
<glyph unicode="t" glyph-name="t" horiz-adv-x="694" d="M641 10Q583 -23 487 -23Q219 -23 219 279V885H43V1024H219V1274Q297 1299 383 1327V1024H641V885H383V307Q383 204 418 161T535 117Q596 117 641 150V10Z" />
<glyph unicode="u" glyph-name="u" horiz-adv-x="1159" d="M993 0H829V162H825Q723 -25 510 -25Q143 -25 143 412V1024H307V438Q307 115 555 115Q674 115 751 201T829 434V1024H993V0Z" />
<glyph unicode="v" glyph-name="v" horiz-adv-x="981" d="M971 1024L563 0H401L14 1024H195L455 281Q482 201 489 137H494Q503 213 526 276L799 1024H971Z" />
<glyph unicode="w" glyph-name="w" horiz-adv-x="1481" d="M1456 1024L1149 0H979L768 733Q757 773 752 827H748Q745 792 727 735L498 0H334L25 1024H197L408 254Q418 214 422 162H430Q433 205 449 256L684 1024H834L1047 252Q1057 215 1061 160H1069Q1071 199
1085 252L1294 1024H1456Z" />
<glyph unicode="x" glyph-name="x" horiz-adv-x="940" d="M913 1024L569 506L907 0H717L516 332Q500 358 471 410H467Q463 401 420 332L215 0H27L375 502L41 1024H231L430 674Q448 643 473 594H477Q480 599 524 674L733 1024H913Z" />
<glyph unicode="y" glyph-name="y" horiz-adv-x="991" d="M981 1024L510 -164Q384 -481 156 -481Q92 -481 49 -469V-322Q102 -340 145 -340Q270 -340 332 -193L414 2L14 1024H197L473 236Q481 214 494 158H500Q505 182 520 233L811 1024H981Z" />
<glyph unicode="z" glyph-name="z" horiz-adv-x="926" d="M881 977L274 139H874V0H33V51L639 885H90V1024H881V977Z" />
<glyph unicode="{" glyph-name="braceleft" horiz-adv-x="618" d="M555 -326Q248 -322 248 -16V285Q248 487 92 496V612Q248 622 248 827V1120Q248 1430 555 1434V1307Q395 1303 395 1108V815Q395 605 246 557V553Q395 507 395 297V8Q395 -104 432 -151T555 -201V-326Z" />
<glyph unicode="|" glyph-name="bar" horiz-adv-x="489" d="M319 -481H172V1567H319V-481Z" />
<glyph unicode="}" glyph-name="braceright" horiz-adv-x="618" d="M528 496Q373 487 373 285V-16Q373 -322 66 -326V-201Q151 -199 188 -152T225 8V297Q225 507 375 553V557Q225 605 225 815V1108Q225 1303 66 1307V1434Q373 1430 373 1120V827Q373 622 528 612V496Z" />
<glyph unicode="~" glyph-name="asciitilde" horiz-adv-x="1401" d="M1194 750Q1189 611 1120 529Q1045 440 913 440Q805 440 649 549Q552 616 489 616Q350 616 344 440H209Q215 580 285 663Q359 750 489 750Q596 750 725 662Q857 571 922 571Q983 571 1020 620T1059
750H1194Z" />
</font>
</defs>
</svg>
